# 3ds Max Wavefront OBJ Exporter v0.97b - (c)2007 guruware
# 创建的文件:14.05.2014 10:15:01

mtllib 武器.mtl

#
# object obj____
#

v  -0.0002 23.4714 1.5437
v  1.5880 23.4714 -0.0000
v  1.2328 53.4666 -0.0000
v  -0.0002 53.4666 1.5437
v  1.5786 79.1729 -0.0599
v  -0.0096 79.1729 1.4842
v  2.5506 83.0620 -0.0599
v  -0.0096 83.0620 2.5970
v  -0.0096 87.3628 1.4864
v  1.5166 87.4544 -0.0599
v  4.2047 14.8540 -0.0000
v  3.1711 14.8540 0.8662
v  1.9852 11.6647 -0.0000
v  4.1992 18.0506 -0.0000
v  3.1673 18.0506 0.8662
v  2.3986 20.6181 -0.0000
v  1.8089 20.6181 0.5461
v  1.8666 21.5391 -0.0000
v  2.3708 21.8982 -0.0000
v  -0.0002 21.8982 2.7789
v  -0.0002 21.5391 1.9422
v  -0.0002 22.9839 2.7780
v  2.3426 22.9839 -0.0000
v  -0.0002 11.6647 1.4029
v  -0.0002 9.7405 2.3740
v  3.0196 9.7405 -0.0000
v  -0.0002 8.9162 1.4500
v  1.1695 8.9162 -0.0000
v  -0.0002 6.0735 2.6094
v  2.5899 6.0735 -0.0000
v  -0.0002 0.0000 -0.0000
v  -0.0002 20.6181 1.4928
v  -0.0002 23.4714 -1.5442
v  -0.0002 53.4666 -1.5442
v  -0.0096 79.1729 -1.6041
v  -0.0096 83.0620 -2.7168
v  -0.0096 87.3628 -1.6062
v  3.1711 14.8540 -0.8667
v  3.1673 18.0506 -0.8667
v  1.8089 20.6181 -0.5465
v  -0.0002 21.5391 -1.9422
v  -0.0002 21.8982 -2.7789
v  -0.0002 22.9839 -2.7780
v  -0.0002 11.6647 -1.4029
v  -0.0002 9.7405 -2.3744
v  -0.0002 8.9162 -1.4504
v  -0.0002 6.0735 -2.6094
v  -0.0002 20.6181 -1.4928
v  -1.2328 53.4666 -0.0000
v  -1.5885 23.4714 -0.0000
v  -1.5983 79.1729 -0.0599
v  -2.5698 83.0620 -0.0599
v  -1.5362 87.4544 -0.0599
v  -3.1716 14.8540 0.8662
v  -4.2051 14.8540 -0.0000
v  -1.9856 11.6647 -0.0000
v  -4.1996 18.0506 -0.0000
v  -3.1673 18.0506 0.8662
v  -2.3986 20.6181 -0.0000
v  -1.8093 20.6181 0.5461
v  -1.8671 21.5391 -0.0000
v  -2.3712 21.8982 -0.0000
v  -2.3430 22.9839 -0.0000
v  -3.0196 9.7405 -0.0000
v  -1.1695 8.9162 -0.0000
v  -2.5904 6.0735 -0.0000
v  -3.1716 14.8540 -0.8667
v  -3.1673 18.0506 -0.8667
v  -1.8093 20.6181 -0.5465
v  -0.0327 106.3695 1.3443
v  1.4934 106.3845 -0.2020
v  -0.0327 106.3695 -1.7483
v  -1.5589 106.3845 -0.2020
v  4.4097 139.3203 -0.2166
v  2.6884 141.7393 -0.2166
v  3.1052 139.1174 0.6634
v  3.4724 143.9973 -0.2166
v  2.2112 147.4109 -0.2166
v  -0.0002 145.7041 0.9313
v  -0.0002 153.7104 -0.2166
v  1.7335 128.5488 0.8953
v  1.9908 125.6835 0.7378
v  3.0813 125.8200 -0.2166
v  2.7907 128.5488 -0.2166
v  4.4238 131.5413 -0.2166
v  1.6064 141.9657 0.6522
v  -0.0002 137.2471 1.2013
v  2.6554 131.5789 0.7015
v  -0.0002 125.5996 1.5176
v  -0.0002 131.5169 1.2972
v  5.1587 135.4625 -0.2166
v  3.5289 135.3640 0.6835
v  1.7836 104.1008 0.3608
v  -0.0002 105.0008 0.3591
v  -0.0002 101.5448 0.3595
v  2.2458 102.5001 0.3586
v  -0.0002 123.0069 1.2287
v  2.1431 123.1212 1.2287
v  3.4519 111.7090 1.2287
v  8.9793 113.7308 1.2287
v  7.0808 116.5657 1.2287
v  3.5431 115.5591 1.2287
v  2.7958 116.7528 1.2287
v  2.7188 120.6123 1.2287
v  1.0025 120.5622 1.2287
v  1.7502 117.2937 1.2287
v  -0.0002 116.6702 1.2287
v  3.8268 118.6693 1.2287
v  4.0271 117.1204 1.2287
v  6.7572 118.9552 1.2287
v  8.7807 118.6962 -0.2166
v  10.8363 119.8479 -0.2166
v  6.8086 124.0631 -0.2166
v  5.1086 123.8898 0.7562
v  6.4238 122.6773 -0.2166
v  4.6768 125.0629 -0.2166
v  2.9233 108.5723 1.2176
v  -0.0002 108.4555 1.2287
v  1.8919 105.9753 0.3569
v  6.0733 125.3629 -0.2166
v  5.8965 120.8760 1.2287
v  8.2410 125.2089 -0.2166
v  10.0754 122.6915 -0.2166
v  7.6962 122.8100 -0.2166
v  8.4636 121.4644 -0.2166
v  7.7176 120.4467 -0.2166
v  8.0527 117.9233 -0.2166
v  8.7649 120.4698 -0.2166
v  10.4456 116.5482 -0.2166
v  9.2194 116.0072 -0.2166
v  9.1364 117.8424 -0.2166
v  16.0611 110.7563 0.6005
v  17.8103 110.7195 -0.2166
v  16.1476 113.3555 0.5097
v  16.4686 115.9833 0.4190
v  14.1365 116.6329 0.7528
v  13.7671 113.9319 0.7982
v  12.1502 133.0773 0.5183
v  14.5324 133.8952 -0.2166
v  12.4853 137.4988 -0.2166
v  11.0623 137.6662 0.1648
v  9.4210 137.7517 -0.2166
v  12.1425 142.7005 -0.2166
v  8.7182 132.2693 -0.2166
v  12.3526 127.2122 0.6005
v  15.6601 128.1286 0.4507
v  17.0288 132.8911 -0.2166
v  17.3352 122.8395 0.4353
v  21.2470 122.9410 -0.2166
v  20.2686 126.6546 -0.2166
v  13.2698 123.0835 0.6005
v  17.0279 118.4472 0.4190
v  18.9479 115.0485 -0.2166
v  19.6010 117.9096 -0.2166
v  17.7521 112.8958 -0.2166
v  19.8312 112.6373 -0.2166
v  18.4501 129.7865 -0.2166
v  15.6554 132.0600 -0.2166
v  12.3685 118.6273 0.6005
v  19.6733 120.4356 -0.2166
v  22.5018 120.4189 -0.2166
v  -0.0002 111.5164 1.2287
v  13.9101 110.2680 0.6005
v  9.8160 114.5487 -0.2166
v  11.8562 108.7585 0.6005
v  11.2686 112.7687 1.0828
v  9.3110 108.8920 0.6334
v  3.8123 107.5066 0.3925
v  5.8452 108.7542 0.4528
v  8.4169 105.5058 0.6005
v  10.4618 106.3310 0.3244
v  6.1396 103.7365 -0.2166
v  6.7217 105.9706 -0.2166
v  6.8899 102.1453 0.6005
v  9.0015 101.7845 -0.2166
v  10.5667 104.3156 -0.2166
v  4.9297 102.3375 -0.2166
v  6.7247 97.8163 -0.2166
v  8.0018 98.0465 0.6005
v  9.2934 98.4544 -0.2166
v  11.7980 94.5820 -0.2166
v  12.2516 106.0006 0.4263
v  14.3406 108.7987 -0.2166
v  13.0271 102.6833 -0.2166
v  12.1048 104.0580 0.1879
v  11.7034 103.3702 -0.2166
v  14.1510 106.3960 -0.2166
v  15.8942 108.0202 0.1973
v  15.0742 107.7262 -0.2166
v  17.1880 107.8460 -0.2166
v  12.7276 103.8448 -0.2166
v  13.1063 104.1252 0.1121
v  13.6216 104.6101 -0.2166
v  1.7793 100.6071 0.3578
v  13.9195 103.4181 -0.2166
v  -0.0002 97.4080 0.3621
v  2.2090 98.5246 0.3578
v  1.7828 96.3847 0.3574
v  1.8829 93.6618 0.3574
v  -0.0002 93.6469 0.3625
v  2.8780 98.5246 -0.2166
v  2.3340 96.3847 -0.2166
v  4.0348 107.2815 -0.2166
v  5.8447 108.1392 -0.2166
v  2.3319 104.1008 -0.2166
v  2.9066 102.5001 -0.2166
v  2.3516 105.9753 -0.2166
v  2.3314 100.6071 -0.2166
v  2.6383 93.6618 -0.2166
v  1.8829 93.6618 -0.2166
v  -0.0002 93.6469 -0.2166
v  11.2014 113.7013 -0.2166
v  12.9210 114.2469 -0.2166
v  15.5779 104.8510 -0.2166
v  13.3400 116.6578 -0.2166
v  3.1052 139.1174 -1.0965
v  -0.0002 145.7041 -1.3644
v  1.9908 125.6835 -1.1710
v  1.7335 128.5488 -1.3285
v  1.6064 141.9657 -1.0854
v  -0.0002 137.2471 -1.6345
v  2.6554 131.5789 -1.1346
v  -0.0002 125.5996 -1.9507
v  -0.0002 131.5169 -1.7303
v  3.5289 135.3640 -1.1166
v  -0.0002 101.5448 -0.7926
v  -0.0002 105.0008 -0.7922
v  1.7836 104.1008 -0.7939
v  2.2458 102.5001 -0.7918
v  -0.0002 123.0069 -1.6619
v  2.1431 123.1212 -1.6619
v  7.0808 116.5657 -1.6619
v  8.9793 113.7308 -1.6619
v  3.4519 111.7090 -1.6619
v  3.5431 115.5591 -1.6619
v  2.7958 116.7528 -1.6619
v  2.7188 120.6123 -1.6619
v  1.0025 120.5622 -1.6619
v  1.7502 117.2937 -1.6619
v  -0.0002 116.6702 -1.6619
v  4.0271 117.1204 -1.6619
v  3.8268 118.6693 -1.6619
v  6.7572 118.9552 -1.6619
v  5.1086 123.8898 -1.1894
v  -0.0002 108.4555 -1.6619
v  2.9233 108.5723 -1.6507
v  1.8919 105.9753 -0.7901
v  5.8965 120.8760 -1.6619
v  16.0611 110.7563 -1.0336
v  16.1476 113.3555 -0.9428
v  14.1365 116.6329 -1.1859
v  16.4686 115.9833 -0.8521
v  13.7671 113.9319 -1.2309
v  12.1502 133.0773 -0.9514
v  11.0623 137.6662 -0.5979
v  15.6601 128.1286 -0.8838
v  12.3526 127.2122 -1.0336
v  17.3352 122.8395 -0.8679
v  13.2698 123.0835 -1.0336
v  17.0279 118.4472 -0.8521
v  12.3685 118.6273 -1.0336
v  -0.0002 111.5164 -1.6619
v  13.9101 110.2680 -1.0336
v  11.2686 112.7687 -1.5159
v  11.8562 108.7585 -1.0336
v  9.3110 108.8920 -1.0665
v  5.8452 108.7542 -0.8859
v  3.8123 107.5066 -0.8256
v  8.4169 105.5058 -1.0336
v  10.4618 106.3310 -0.7575
v  6.8899 102.1453 -1.0336
v  8.0018 98.0465 -1.0336
v  12.2516 106.0006 -0.8594
v  12.1048 104.0580 -0.6206
v  15.8942 108.0202 -0.6304
v  13.1063 104.1252 -0.5452
v  1.7793 100.6071 -0.7909
v  2.2090 98.5246 -0.7909
v  -0.0002 97.4080 -0.7952
v  1.7828 96.3847 -0.7905
v  1.8829 93.6618 -0.7905
v  -0.0002 93.6469 -0.7956
v  -2.6888 141.7393 -0.2166
v  -4.4097 139.3203 -0.2166
v  -3.1052 139.1174 0.6634
v  -2.2116 147.4109 -0.2166
v  -3.4729 143.9973 -0.2166
v  -3.0817 125.8200 -0.2166
v  -1.9908 125.6835 0.7378
v  -1.7335 128.5488 0.8953
v  -2.7907 128.5488 -0.2166
v  -4.4243 131.5413 -0.2166
v  -1.6069 141.9657 0.6522
v  -2.6558 131.5789 0.7015
v  -5.1591 135.4625 -0.2166
v  -3.5289 135.3640 0.6835
v  -1.7836 104.1008 0.3608
v  -2.2458 102.5001 0.3586
v  -2.1435 123.1212 1.2287
v  -7.0808 116.5657 1.2287
v  -8.9797 113.7308 1.2287
v  -3.4519 111.7090 1.2287
v  -3.5431 115.5591 1.2287
v  -2.7962 116.7528 1.2287
v  -2.7188 120.6123 1.2287
v  -1.0025 120.5622 1.2287
v  -1.7502 117.2937 1.2287
v  -4.0275 117.1204 1.2287
v  -3.8268 118.6693 1.2287
v  -6.7572 118.9552 1.2287
v  -8.7811 118.6962 -0.2166
v  -10.8363 119.8479 -0.2166
v  -5.1090 123.8898 0.7562
v  -6.8086 124.0631 -0.2166
v  -6.4242 122.6773 -0.2166
v  -4.6772 125.0629 -0.2166
v  -2.9233 108.5723 1.2176
v  -1.8919 105.9753 0.3569
v  -6.0737 125.3629 -0.2166
v  -5.8965 120.8760 1.2287
v  -8.2410 125.2089 -0.2166
v  -7.6962 122.8100 -0.2166
v  -10.0753 122.6915 -0.2166
v  -8.4636 121.4644 -0.2166
v  -7.7176 120.4467 -0.2166
v  -8.0531 117.9233 -0.2166
v  -8.7653 120.4698 -0.2166
v  -10.4460 116.5482 -0.2166
v  -9.2194 116.0072 -0.2166
v  -9.1368 117.8424 -0.2166
v  -17.8107 110.7195 -0.2166
v  -16.0611 110.7563 0.6005
v  -16.1480 113.3555 0.5097
v  -14.1365 116.6329 0.7528
v  -16.4690 115.9833 0.4190
v  -13.7676 113.9319 0.7982
v  -12.4853 137.4988 -0.2166
v  -14.5324 133.8952 -0.2166
v  -12.1502 133.0773 0.5183
v  -11.0623 137.6662 0.1648
v  -9.4210 137.7517 -0.2166
v  -12.1429 142.7005 -0.2166
v  -15.6601 128.1286 0.4507
v  -12.3531 127.2122 0.6005
v  -8.7187 132.2693 -0.2166
v  -17.0292 132.8911 -0.2166
v  -21.2474 122.9410 -0.2166
v  -17.3352 122.8395 0.4353
v  -20.2686 126.6546 -0.2166
v  -13.2698 123.0835 0.6005
v  -18.9479 115.0485 -0.2166
v  -17.0279 118.4472 0.4190
v  -19.6014 117.9096 -0.2166
v  -19.8312 112.6373 -0.2166
v  -17.7525 112.8958 -0.2166
v  -18.4501 129.7865 -0.2166
v  -15.6558 132.0600 -0.2166
v  -12.3685 118.6273 0.6005
v  -19.6733 120.4356 -0.2166
v  -22.5018 120.4189 -0.2166
v  -13.9105 110.2680 0.6005
v  -9.8164 114.5487 -0.2166
v  -11.2686 112.7687 1.0828
v  -11.8566 108.7585 0.6005
v  -9.3114 108.8920 0.6334
v  -5.8456 108.7542 0.4528
v  -3.8127 107.5066 0.3925
v  -8.4173 105.5058 0.6005
v  -10.4618 106.3310 0.3244
v  -6.1401 103.7365 -0.2166
v  -6.7221 105.9706 -0.2166
v  -9.0020 101.7845 -0.2166
v  -6.8903 102.1453 0.6005
v  -10.5671 104.3156 -0.2166
v  -6.7247 97.8163 -0.2166
v  -4.9297 102.3375 -0.2166
v  -8.0018 98.0465 0.6005
v  -9.2934 98.4544 -0.2166
v  -11.7984 94.5820 -0.2166
v  -12.2521 106.0006 0.4263
v  -14.3410 108.7987 -0.2166
v  -12.1048 104.0580 0.1879
v  -13.0271 102.6833 -0.2166
v  -11.7038 103.3702 -0.2166
v  -14.1515 106.3960 -0.2166
v  -15.8946 108.0202 0.1973
v  -15.0746 107.7262 -0.2166
v  -17.1880 107.8460 -0.2166
v  -13.1068 104.1252 0.1121
v  -12.7280 103.8448 -0.2166
v  -13.6220 104.6101 -0.2166
v  -1.7793 100.6071 0.3578
v  -13.9199 103.4181 -0.2166
v  -2.2090 98.5246 0.3578
v  -1.7832 96.3847 0.3574
v  -1.8833 93.6618 0.3574
v  -2.8780 98.5246 -0.2166
v  -2.3344 96.3847 -0.2166
v  -4.0348 107.2815 -0.2166
v  -5.8452 108.1392 -0.2166
v  -2.3319 104.1008 -0.2166
v  -2.9071 102.5001 -0.2166
v  -2.3520 105.9753 -0.2166
v  -2.3314 100.6071 -0.2166
v  -2.6383 93.6618 -0.2166
v  -1.8833 93.6618 -0.2166
v  -11.2014 113.7013 -0.2166
v  -12.9210 114.2469 -0.2166
v  -15.5783 104.8510 -0.2166
v  -13.3404 116.6578 -0.2166
v  -3.1052 139.1174 -1.0965
v  -1.7335 128.5488 -1.3285
v  -1.9908 125.6835 -1.1710
v  -1.6069 141.9657 -1.0854
v  -2.6558 131.5789 -1.1346
v  -3.5289 135.3640 -1.1166
v  -1.7836 104.1008 -0.7939
v  -2.2458 102.5001 -0.7918
v  -2.1435 123.1212 -1.6619
v  -3.4519 111.7090 -1.6619
v  -8.9797 113.7308 -1.6619
v  -7.0808 116.5657 -1.6619
v  -3.5431 115.5591 -1.6619
v  -2.7962 116.7528 -1.6619
v  -2.7188 120.6123 -1.6619
v  -1.0025 120.5622 -1.6619
v  -1.7502 117.2937 -1.6619
v  -3.8268 118.6693 -1.6619
v  -4.0275 117.1204 -1.6619
v  -6.7572 118.9552 -1.6619
v  -5.1090 123.8898 -1.1894
v  -2.9233 108.5723 -1.6507
v  -1.8919 105.9753 -0.7901
v  -5.8965 120.8760 -1.6619
v  -16.0611 110.7563 -1.0336
v  -16.1480 113.3555 -0.9428
v  -16.4690 115.9833 -0.8521
v  -14.1365 116.6329 -1.1859
v  -13.7676 113.9319 -1.2309
v  -12.1502 133.0773 -0.9514
v  -11.0623 137.6662 -0.5979
v  -12.3531 127.2122 -1.0336
v  -15.6601 128.1286 -0.8838
v  -17.3352 122.8395 -0.8679
v  -13.2698 123.0835 -1.0336
v  -17.0279 118.4472 -0.8521
v  -12.3685 118.6273 -1.0336
v  -13.9105 110.2680 -1.0336
v  -11.8566 108.7585 -1.0336
v  -11.2686 112.7687 -1.5159
v  -9.3114 108.8920 -1.0665
v  -3.8127 107.5066 -0.8256
v  -5.8456 108.7542 -0.8859
v  -8.4173 105.5058 -1.0336
v  -10.4618 106.3310 -0.7575
v  -6.8903 102.1453 -1.0336
v  -8.0018 98.0465 -1.0336
v  -12.2521 106.0006 -0.8594
v  -12.1048 104.0580 -0.6206
v  -15.8946 108.0202 -0.6304
v  -13.1068 104.1252 -0.5452
v  -1.7793 100.6071 -0.7909
v  -2.2090 98.5246 -0.7909
v  -1.7832 96.3847 -0.7905
v  -1.8833 93.6618 -0.7905
# 465 vertices

vn -0.0000 0.7246 0.6892
vn 0.7835 0.6205 -0.0324
vn 1.0000 -0.0065 0.0005
vn 0.0000 -0.0070 1.0000
vn 1.0000 -0.0004 -0.0011
vn -0.0001 0.0023 1.0000
vn 0.0000 -0.2542 0.9672
vn 0.9702 -0.2425 -0.0000
vn 1.0000 -0.0094 0.0000
vn 0.0000 -0.0117 0.9999
vn 0.0000 0.2378 0.9713
vn 0.9734 0.2291 0.0000
vn 0.9647 -0.2635 0.0001
vn 0.4630 -0.1576 0.8722
vn 0.8019 -0.5975 0.0000
vn 0.9639 0.2663 0.0001
vn 0.4696 0.1581 0.8686
vn 0.8439 0.5365 0.0002
vn 0.5092 0.3922 0.7661
vn 0.5719 -0.8198 -0.0281
vn 0.9211 -0.3893 -0.0065
vn 0.0000 -0.4463 0.8949
vn 0.0000 -0.9190 0.3944
vn 0.0000 0.4544 0.8908
vn 0.9035 0.4285 -0.0078
vn -0.0000 0.4220 0.9066
vn -0.0000 -0.1536 0.9881
vn 0.9731 -0.2305 -0.0031
vn 0.8709 0.4908 0.0236
vn -0.0000 -0.8020 0.5974
vn 0.4345 -0.8963 -0.0886
vn -0.0000 0.4434 0.8963
vn 0.0000 -0.0080 1.0000
vn 0.9999 0.0159 -0.0066
vn 0.9078 0.4178 -0.0357
vn 0.0000 -1.0000 -0.0000
vn 0.0000 -0.2423 0.9702
vn -0.0000 -0.0218 0.9998
vn 0.8875 0.4550 0.0726
vn 0.0000 -0.4385 0.8987
vn -0.0000 0.7072 -0.7070
vn 0.0000 -0.0093 -1.0000
vn -0.0001 -0.0023 -1.0000
vn 0.0000 -0.2542 -0.9672
vn -0.0000 -0.0117 -0.9999
vn 0.0000 0.2378 -0.9713
vn 0.4631 -0.1577 -0.8722
vn 0.4697 0.1581 -0.8686
vn 0.5838 0.3189 -0.7466
vn 0.0000 -0.9136 -0.4066
vn 0.0000 -0.4520 -0.8920
vn 0.0000 0.4627 -0.8865
vn 0.0000 0.4507 -0.8927
vn -0.0000 -0.2029 -0.9792
vn -0.0001 -0.7462 -0.6657
vn -0.0000 0.0136 -0.9999
vn -0.0001 0.3775 -0.9260
vn 0.0000 -0.2423 -0.9702
vn -0.0000 -0.1577 -0.9875
vn 0.0000 -0.2211 -0.9753
vn -1.0000 -0.0069 0.0005
vn -0.7835 0.6205 -0.0324
vn -1.0000 -0.0011 -0.0011
vn -1.0000 -0.0094 -0.0000
vn -0.9702 -0.2424 -0.0000
vn -0.9734 0.2291 0.0000
vn -0.4630 -0.1576 0.8722
vn -0.9647 -0.2635 0.0001
vn -0.8019 -0.5975 0.0000
vn -0.9639 0.2664 0.0001
vn -0.4695 0.1581 0.8686
vn -0.8440 0.5364 0.0002
vn -0.5093 0.3922 0.7661
vn -0.5719 -0.8198 -0.0281
vn -0.9211 -0.3893 -0.0065
vn -0.9035 0.4285 -0.0078
vn -0.8710 0.4907 0.0236
vn -0.9730 -0.2306 -0.0031
vn -0.4346 -0.8963 -0.0886
vn -0.9078 0.4179 -0.0357
vn -0.9999 0.0159 -0.0066
vn -0.8876 0.4549 0.0726
vn -0.4631 -0.1577 -0.8722
vn -0.4696 0.1582 -0.8686
vn -0.5839 0.3189 -0.7466
vn 0.7116 0.0061 0.7026
vn 0.7118 -0.0044 -0.7024
vn -0.7116 0.0044 0.7026
vn -0.7118 -0.0061 -0.7024
vn 0.0000 1.0000 0.0000
vn 0.9373 0.3484 -0.0000
vn 0.9930 -0.1178 -0.0000
vn 0.5266 0.1988 0.8265
vn 0.9948 0.1021 -0.0000
vn 0.9413 0.3375 -0.0000
vn 0.0000 0.1152 0.9933
vn 0.0000 1.0000 -0.0000
vn 0.7077 -0.1036 0.6989
vn 0.3874 0.1993 0.9001
vn 0.7270 0.6866 0.0000
vn 0.9740 -0.2265 0.0000
vn 0.8778 -0.4791 -0.0000
vn 0.3483 -0.0062 0.9374
vn 0.0000 0.0319 0.9995
vn 0.3051 0.0044 0.9523
vn 0.9841 -0.1776 -0.0000
vn 0.3115 -0.0496 0.9490
vn 0.2143 0.0934 0.9723
vn 0.8834 0.4687 0.0000
vn 0.4334 0.2314 0.8710
vn -0.0000 0.0011 1.0000
vn -0.0000 -0.0030 1.0000
vn 0.3653 -0.0184 0.9307
vn 0.4656 -0.0921 0.8802
vn 0.9829 -0.1842 -0.0000
vn 1.0000 -0.0015 -0.0000
vn 0.4925 -0.0168 0.8702
vn 0.1674 0.0071 0.9859
vn -0.0000 0.0329 0.9995
vn -0.0001 0.0005 1.0000
vn 0.0000 0.0010 1.0000
vn -0.0000 -0.0002 1.0000
vn 0.0008 -0.0009 1.0000
vn -0.0000 -0.1107 0.9938
vn -0.0000 0.0305 0.9995
vn 0.0653 0.1092 0.9919
vn 0.0908 -0.0837 0.9923
vn 0.1833 0.1526 0.9711
vn 0.0000 0.0000 1.0000
vn 0.5879 0.1302 0.7984
vn 0.5628 -0.8266 0.0000
vn 0.9899 0.1418 0.0000
vn 0.7459 -0.6661 -0.0000
vn 0.6328 -0.0344 0.7735
vn 0.7346 0.6785 -0.0000
vn 0.1012 0.3902 0.9151
vn 0.2574 0.9663 -0.0000
vn 0.0278 -0.1158 0.9929
vn -0.0000 -0.1270 0.9919
vn -0.0000 -0.3005 0.9538
vn 0.1955 -0.3776 0.9051
vn -0.0250 0.9997 -0.0000
vn 0.0411 0.0563 0.9976
vn -0.0053 0.0643 0.9979
vn 0.5267 0.2431 0.8145
vn 0.6246 -0.7809 -0.0000
vn 0.0709 0.9975 -0.0000
vn 0.9445 0.3286 -0.0000
vn 0.0036 1.0000 0.0000
vn 0.6533 -0.7571 0.0000
vn 0.8473 0.5310 0.0000
vn 0.5740 0.2603 0.7764
vn 0.9154 0.4025 0.0000
vn 0.1931 0.9812 0.0000
vn 0.9914 -0.1312 0.0000
vn 0.8343 -0.5513 0.0000
vn 0.5833 0.3906 0.7122
vn 0.4916 0.8708 0.0000
vn 0.2885 -0.0616 0.9555
vn 0.9964 -0.0843 0.0000
vn 0.4129 -0.0039 0.9108
vn 0.1334 -0.0103 0.9910
vn -0.2600 -0.0417 0.9647
vn -0.1603 0.1677 0.9727
vn -0.0640 -0.0057 0.9979
vn 0.8695 0.4939 -0.0000
vn 0.9449 0.3275 -0.0000
vn -0.0107 0.0745 0.9972
vn -0.9585 0.2851 -0.0000
vn 0.2145 0.9767 -0.0000
vn -0.9997 -0.0248 -0.0000
vn 0.0195 0.0913 0.9956
vn -0.0023 0.0313 0.9995
vn 0.9990 0.0438 -0.0000
vn 0.3731 0.9278 -0.0000
vn 0.1833 0.1694 0.9683
vn 0.1684 0.0886 0.9817
vn 0.1671 0.0052 0.9859
vn 0.9245 0.3813 -0.0001
vn 0.9431 0.3324 0.0000
vn 0.0403 0.0013 0.9992
vn 0.0409 0.0006 0.9992
vn 0.2327 -0.0356 0.9719
vn 0.2394 -0.0452 0.9699
vn 0.9868 0.1622 0.0000
vn 0.9892 -0.1465 -0.0000
vn 0.0946 -0.0030 0.9955
vn 0.9263 -0.3768 0.0000
vn 0.7613 -0.6484 0.0000
vn 0.8266 0.5628 0.0000
vn 0.9275 0.3739 -0.0000
vn -0.0931 -0.0737 0.9929
vn 0.0651 0.0110 0.9978
vn 0.6917 -0.7222 -0.0001
vn 0.8672 -0.4979 -0.0000
vn 0.0009 -0.0010 1.0000
vn 0.0423 -0.0341 0.9985
vn -0.0080 0.0352 0.9994
vn 0.9256 0.3786 -0.0000
vn 0.7420 0.6704 0.0000
vn 0.0460 -0.0994 0.9940
vn 0.0885 0.2793 0.9561
vn -0.0189 -0.1234 0.9922
vn 0.2797 -0.4310 0.8579
vn 0.1166 -0.1824 0.9763
vn 0.2766 -0.2753 0.9207
vn -0.0522 0.0041 0.9986
vn 0.1534 -0.0501 0.9869
vn -0.4079 0.1063 0.9068
vn 0.3026 -0.1588 0.9398
vn -0.4441 -0.1498 0.8834
vn 0.4305 0.0813 0.8989
vn -0.3656 -0.5735 0.7331
vn 0.4453 0.2880 0.8478
vn -0.0701 -0.0729 0.9949
vn 0.1044 -0.4598 0.8819
vn -0.2088 -0.4023 0.8914
vn 0.3253 -0.0257 0.9453
vn -0.0412 -0.1541 0.9872
vn -0.8992 -0.4375 -0.0000
vn -0.9238 -0.3829 0.0000
vn 0.9122 -0.4097 -0.0000
vn -0.4562 -0.3453 0.8202
vn 0.4851 0.0751 0.8712
vn 0.5738 0.1480 0.8055
vn 0.2249 -0.2417 0.9439
vn -0.1031 -0.2629 0.9593
vn 0.3376 -0.1001 0.9360
vn 0.0009 -0.0001 1.0000
vn -0.3426 0.2963 0.8916
vn -0.4736 0.2152 0.8540
vn -0.2167 -0.6053 0.7659
vn 0.4559 0.1139 0.8827
vn 0.5043 -0.1426 0.8517
vn -0.2927 -0.3520 0.8891
vn 0.3126 -0.0152 0.9498
vn 0.1153 -0.1506 0.9818
vn -0.0000 0.0000 1.0000
vn 0.0018 0.0001 1.0000
vn 0.0023 -0.0007 1.0000
vn 0.0027 0.0001 1.0000
vn 0.6772 -0.1536 0.7196
vn 0.3941 -0.7351 0.5516
vn 0.6734 0.2177 0.7065
vn 0.7520 -0.0250 0.6586
vn 0.6759 -0.1861 0.7131
vn 0.6765 0.1586 0.7191
vn 0.6592 0.0490 0.7504
vn -0.8764 -0.3544 0.3262
vn 0.5494 -0.7034 0.4509
vn 0.0080 -1.0000 -0.0000
vn 0.1584 0.9874 -0.0000
vn -0.7021 0.7121 -0.0001
vn 0.2924 -0.3979 0.8696
vn -0.1400 -0.9902 0.0000
vn 0.0067 -0.1168 0.9931
vn -0.2683 -0.0973 0.9584
vn -0.4826 -0.3455 0.8048
vn -0.9613 -0.2755 -0.0000
vn 0.5266 0.1988 -0.8265
vn 0.0000 0.1152 -0.9933
vn 0.3874 0.1993 -0.9001
vn 0.7077 -0.1036 -0.6989
vn 0.3483 -0.0062 -0.9374
vn 0.0000 0.0319 -0.9995
vn 0.3051 0.0044 -0.9523
vn 0.3115 -0.0496 -0.9490
vn 0.2143 0.0934 -0.9723
vn 0.4334 0.2314 -0.8710
vn -0.0000 0.0011 -1.0000
vn -0.0000 -0.0030 -1.0000
vn 0.3653 -0.0184 -0.9307
vn 0.4656 -0.0921 -0.8802
vn 0.4925 -0.0168 -0.8702
vn 0.1674 0.0071 -0.9859
vn -0.0000 0.0329 -0.9995
vn -0.0000 -0.0002 -1.0000
vn 0.0000 0.0010 -1.0000
vn -0.0001 0.0005 -1.0000
vn 0.0008 -0.0009 -1.0000
vn -0.0000 0.0305 -0.9995
vn -0.0000 -0.1107 -0.9938
vn 0.0653 0.1092 -0.9919
vn 0.0000 0.0000 -1.0000
vn 0.1833 0.1526 -0.9711
vn 0.0908 -0.0837 -0.9923
vn 0.5879 0.1302 -0.7984
vn 0.6328 -0.0344 -0.7735
vn 0.1012 0.3902 -0.9151
vn -0.0000 -0.3005 -0.9538
vn -0.0000 -0.1270 -0.9919
vn 0.0278 -0.1158 -0.9929
vn 0.1955 -0.3776 -0.9051
vn 0.0411 0.0563 -0.9976
vn -0.0053 0.0643 -0.9979
vn 0.5267 0.2431 -0.8145
vn 0.5740 0.2603 -0.7764
vn 0.5833 0.3906 -0.7122
vn 0.2885 -0.0616 -0.9555
vn 0.4129 -0.0039 -0.9108
vn -0.2600 -0.0417 -0.9647
vn 0.1334 -0.0103 -0.9910
vn -0.1603 0.1677 -0.9727
vn -0.0640 -0.0057 -0.9979
vn -0.0107 0.0745 -0.9972
vn -0.0023 0.0313 -0.9995
vn 0.0195 0.0913 -0.9956
vn 0.1833 0.1694 -0.9683
vn 0.1670 0.0052 -0.9859
vn 0.1684 0.0886 -0.9817
vn 0.0409 0.0006 -0.9992
vn 0.0404 0.0013 -0.9992
vn 0.2394 -0.0452 -0.9699
vn 0.2327 -0.0355 -0.9719
vn 0.0945 -0.0030 -0.9955
vn 0.0651 0.0110 -0.9978
vn -0.0931 -0.0737 -0.9929
vn 0.0009 -0.0010 -1.0000
vn 0.0422 -0.0340 -0.9985
vn -0.0080 0.0352 -0.9994
vn 0.0886 0.2793 -0.9561
vn 0.0460 -0.0993 -0.9940
vn -0.0189 -0.1234 -0.9922
vn 0.1166 -0.1824 -0.9763
vn 0.2797 -0.4310 -0.8579
vn 0.2766 -0.2753 -0.9207
vn -0.0522 0.0041 -0.9986
vn 0.1534 -0.0501 -0.9869
vn -0.4079 0.1063 -0.9068
vn 0.3026 -0.1588 -0.9398
vn -0.4441 -0.1498 -0.8834
vn 0.4305 0.0813 -0.8989
vn -0.3656 -0.5735 -0.7331
vn 0.4453 0.2880 -0.8478
vn -0.0701 -0.0729 -0.9949
vn 0.1044 -0.4598 -0.8819
vn -0.2086 -0.4020 -0.8916
vn 0.3253 -0.0257 -0.9453
vn -0.0412 -0.1541 -0.9872
vn -0.4562 -0.3453 -0.8202
vn 0.4851 0.0751 -0.8712
vn 0.5734 0.1479 -0.8058
vn 0.2249 -0.2417 -0.9439
vn -0.1031 -0.2629 -0.9593
vn 0.3376 -0.1001 -0.9360
vn 0.0009 -0.0001 -1.0000
vn -0.3426 0.2963 -0.8916
vn -0.4736 0.2152 -0.8540
vn -0.2167 -0.6053 -0.7659
vn 0.4559 0.1139 -0.8827
vn 0.5038 -0.1428 -0.8519
vn -0.2925 -0.3517 -0.8893
vn 0.3126 -0.0152 -0.9498
vn 0.1153 -0.1506 -0.9818
vn 0.0018 0.0001 -1.0000
vn -0.0000 0.0000 -1.0000
vn 0.0023 -0.0007 -1.0000
vn 0.0027 0.0001 -1.0000
vn 0.6772 -0.1536 -0.7196
vn 0.3941 -0.7351 -0.5516
vn 0.6734 0.2177 -0.7065
vn 0.7520 -0.0250 -0.6586
vn 0.6759 -0.1861 -0.7131
vn 0.6765 0.1586 -0.7191
vn 0.6592 0.0490 -0.7504
vn -0.8764 -0.3544 -0.3262
vn 0.5494 -0.7034 -0.4509
vn 0.2924 -0.3979 -0.8696
vn 0.0067 -0.1168 -0.9931
vn -0.2681 -0.0976 -0.9584
vn -0.4826 -0.3455 -0.8048
vn 0.0292 -0.9996 -0.0000
vn 0.9748 0.2230 -0.0000
vn -0.8687 -0.4954 -0.0000
vn 0.8476 0.5306 -0.0000
vn -0.9917 -0.1283 -0.0000
vn 0.4595 0.8882 -0.0000
vn -0.9551 0.2961 -0.0000
vn -0.8968 -0.4424 -0.0000
vn -0.8120 -0.5836 -0.0000
vn -0.9762 -0.2169 -0.0000
vn -0.9802 0.1983 -0.0000
vn -0.9930 -0.1178 -0.0000
vn -0.9373 0.3484 -0.0000
vn -0.5266 0.1988 0.8265
vn -0.9413 0.3375 -0.0000
vn -0.9948 0.1021 0.0000
vn -0.7270 0.6867 -0.0000
vn -0.3873 0.1993 0.9002
vn -0.7077 -0.1036 0.6989
vn -0.9740 -0.2264 -0.0000
vn -0.8777 -0.4792 -0.0000
vn -0.3483 -0.0062 0.9374
vn -0.9841 -0.1778 -0.0000
vn -0.3052 0.0044 0.9523
vn -0.3115 -0.0496 0.9490
vn -0.8834 0.4686 -0.0000
vn -0.2143 0.0934 0.9723
vn -0.4334 0.2314 0.8710
vn -0.3654 -0.0184 0.9307
vn -1.0000 -0.0014 -0.0000
vn -0.9829 -0.1842 -0.0000
vn -0.4656 -0.0920 0.8802
vn -0.4924 -0.0167 0.8702
vn -0.1674 0.0071 0.9859
vn 0.0001 0.0005 1.0000
vn -0.0008 -0.0009 1.0000
vn -0.0653 0.1092 0.9919
vn -0.1833 0.1526 0.9711
vn -0.0908 -0.0837 0.9923
vn -0.5629 -0.8265 -0.0000
vn -0.5878 0.1303 0.7984
vn -0.9899 0.1418 -0.0000
vn -0.6328 -0.0344 0.7735
vn -0.7460 -0.6660 0.0000
vn -0.7345 0.6786 -0.0000
vn -0.2574 0.9663 0.0000
vn -0.1012 0.3902 0.9151
vn -0.0278 -0.1158 0.9929
vn -0.1956 -0.3776 0.9051
vn 0.0250 0.9997 -0.0000
vn -0.0411 0.0563 0.9976
vn 0.0053 0.0643 0.9979
vn -0.5268 0.2430 0.8145
vn -0.6246 -0.7809 0.0000
vn -0.0709 0.9975 -0.0000
vn -0.0036 1.0000 -0.0000
vn -0.9445 0.3286 -0.0000
vn -0.6533 -0.7571 -0.0000
vn -0.8473 0.5310 -0.0000
vn -0.9154 0.4026 -0.0000
vn -0.5739 0.2603 0.7764
vn -0.1931 0.9812 0.0000
vn -0.9914 -0.1312 0.0000
vn -0.8343 -0.5513 0.0000
vn -0.5833 0.3907 0.7121
vn -0.4916 0.8708 -0.0000
vn -0.9964 -0.0844 0.0000
vn -0.2884 -0.0616 0.9555
vn -0.4129 -0.0039 0.9108
vn 0.2602 -0.0417 0.9647
vn -0.1334 -0.0103 0.9910
vn 0.1603 0.1676 0.9727
vn -0.9449 0.3274 -0.0000
vn -0.8695 0.4939 -0.0000
vn 0.0640 -0.0057 0.9979
vn 0.0107 0.0745 0.9972
vn 0.9585 0.2851 -0.0000
vn -0.2146 0.9767 -0.0000
vn 0.0023 0.0313 0.9995
vn -0.0195 0.0913 0.9956
vn 0.9997 -0.0249 -0.0000
vn -0.3731 0.9278 -0.0000
vn -0.9990 0.0438 -0.0000
vn -0.1833 0.1694 0.9683
vn -0.9245 0.3812 -0.0001
vn -0.1671 0.0052 0.9859
vn -0.1684 0.0886 0.9817
vn -0.9431 0.3325 -0.0000
vn -0.0409 0.0006 0.9992
vn -0.0403 0.0013 0.9992
vn -0.9867 0.1623 -0.0000
vn -0.2394 -0.0452 0.9699
vn -0.2327 -0.0356 0.9719
vn -0.9892 -0.1465 -0.0000
vn -0.0946 -0.0030 0.9955
vn -0.7613 -0.6484 -0.0000
vn -0.9263 -0.3768 -0.0000
vn -0.8266 0.5628 -0.0000
vn -0.9276 0.3737 -0.0000
vn -0.0651 0.0110 0.9978
vn 0.0931 -0.0737 0.9929
vn -0.6918 -0.7221 -0.0001
vn -0.8672 -0.4980 -0.0000
vn -0.0009 -0.0010 1.0000
vn -0.0423 -0.0341 0.9985
vn 0.0080 0.0352 0.9994
vn -0.9255 0.3788 -0.0000
vn -0.7419 0.6705 -0.0000
vn -0.0885 0.2793 0.9561
vn -0.0460 -0.0994 0.9940
vn 0.0189 -0.1234 0.9922
vn -0.1166 -0.1824 0.9763
vn -0.2796 -0.4310 0.8580
vn -0.2765 -0.2753 0.9207
vn 0.0522 0.0041 0.9986
vn -0.1535 -0.0501 0.9869
vn 0.4079 0.1063 0.9068
vn -0.3026 -0.1588 0.9398
vn 0.4441 -0.1497 0.8834
vn -0.4305 0.0813 0.8989
vn 0.3656 -0.5735 0.7331
vn -0.4453 0.2881 0.8478
vn 0.0701 -0.0729 0.9949
vn -0.1044 -0.4598 0.8819
vn 0.2089 -0.4024 0.8913
vn -0.3253 -0.0257 0.9453
vn 0.8992 -0.4376 -0.0000
vn 0.0411 -0.1541 0.9872
vn 0.9238 -0.3829 0.0000
vn -0.9123 -0.4096 0.0000
vn 0.4562 -0.3453 0.8202
vn -0.4851 0.0751 0.8712
vn -0.5735 0.1477 0.8058
vn -0.2250 -0.2416 0.9439
vn 0.1031 -0.2629 0.9593
vn -0.3376 -0.1001 0.9360
vn -0.0009 -0.0001 1.0000
vn 0.3425 0.2963 0.8916
vn 0.4736 0.2152 0.8540
vn 0.2167 -0.6053 0.7659
vn -0.4559 0.1139 0.8827
vn -0.5040 -0.1427 0.8518
vn 0.2928 -0.3521 0.8890
vn -0.3126 -0.0152 0.9498
vn -0.1153 -0.1506 0.9818
vn -0.0018 0.0001 1.0000
vn -0.0023 -0.0007 1.0000
vn -0.0027 0.0001 1.0000
vn -0.6772 -0.1535 0.7196
vn -0.3941 -0.7352 0.5515
vn -0.6733 0.2177 0.7066
vn -0.7519 -0.0251 0.6588
vn -0.6757 -0.1862 0.7132
vn -0.6765 0.1586 0.7191
vn -0.6593 0.0489 0.7503
vn 0.8764 -0.3544 0.3262
vn -0.5494 -0.7034 0.4509
vn -0.0080 -1.0000 -0.0000
vn -0.1585 0.9874 0.0000
vn 0.7019 0.7122 -0.0001
vn -0.2924 -0.3979 0.8696
vn 0.1400 -0.9902 -0.0000
vn -0.0067 -0.1168 0.9931
vn 0.2684 -0.0973 0.9584
vn 0.4826 -0.3455 0.8048
vn 0.9613 -0.2755 -0.0000
vn -0.5266 0.1988 -0.8265
vn -0.7077 -0.1036 -0.6989
vn -0.3873 0.1993 -0.9002
vn -0.3483 -0.0062 -0.9374
vn -0.3052 0.0044 -0.9523
vn -0.3115 -0.0496 -0.9490
vn -0.2143 0.0934 -0.9723
vn -0.4334 0.2314 -0.8710
vn -0.3654 -0.0184 -0.9307
vn -0.4656 -0.0920 -0.8802
vn -0.4924 -0.0167 -0.8702
vn -0.1674 0.0071 -0.9859
vn 0.0001 0.0005 -1.0000
vn -0.0008 -0.0009 -1.0000
vn -0.0653 0.1092 -0.9919
vn -0.0908 -0.0837 -0.9923
vn -0.1833 0.1526 -0.9711
vn -0.5878 0.1303 -0.7984
vn -0.6328 -0.0344 -0.7735
vn -0.1012 0.3902 -0.9151
vn -0.0278 -0.1158 -0.9929
vn -0.1956 -0.3776 -0.9051
vn -0.0411 0.0563 -0.9976
vn 0.0053 0.0643 -0.9979
vn -0.5268 0.2430 -0.8145
vn -0.5739 0.2603 -0.7764
vn -0.5833 0.3907 -0.7121
vn -0.2884 -0.0616 -0.9555
vn -0.4129 -0.0039 -0.9108
vn -0.1334 -0.0103 -0.9910
vn 0.2602 -0.0418 -0.9647
vn 0.1603 0.1676 -0.9727
vn 0.0640 -0.0057 -0.9979
vn 0.0107 0.0745 -0.9972
vn -0.0195 0.0913 -0.9956
vn 0.0023 0.0313 -0.9995
vn -0.1833 0.1694 -0.9683
vn -0.1684 0.0886 -0.9817
vn -0.1670 0.0052 -0.9859
vn -0.0404 0.0013 -0.9992
vn -0.0409 0.0006 -0.9992
vn -0.2327 -0.0355 -0.9719
vn -0.2394 -0.0452 -0.9699
vn -0.0945 -0.0030 -0.9955
vn 0.0931 -0.0737 -0.9929
vn -0.0651 0.0110 -0.9978
vn -0.0009 -0.0010 -1.0000
vn -0.0422 -0.0340 -0.9985
vn 0.0080 0.0352 -0.9994
vn -0.0460 -0.0993 -0.9940
vn -0.0886 0.2793 -0.9561
vn 0.0189 -0.1234 -0.9922
vn -0.2796 -0.4310 -0.8580
vn -0.1166 -0.1824 -0.9763
vn -0.2765 -0.2753 -0.9207
vn 0.0522 0.0041 -0.9986
vn -0.1535 -0.0501 -0.9869
vn 0.4079 0.1063 -0.9068
vn -0.3026 -0.1588 -0.9398
vn 0.4441 -0.1497 -0.8834
vn -0.4305 0.0813 -0.8989
vn 0.3656 -0.5735 -0.7331
vn -0.4453 0.2881 -0.8478
vn 0.0701 -0.0729 -0.9949
vn -0.1044 -0.4598 -0.8819
vn 0.2087 -0.4020 -0.8915
vn -0.3253 -0.0257 -0.9453
vn 0.0411 -0.1541 -0.9872
vn 0.4562 -0.3453 -0.8202
vn -0.4851 0.0751 -0.8712
vn -0.5731 0.1476 -0.8061
vn -0.2250 -0.2416 -0.9439
vn 0.1031 -0.2629 -0.9593
vn -0.3376 -0.1001 -0.9360
vn -0.0009 -0.0001 -1.0000
vn 0.3425 0.2963 -0.8916
vn 0.4736 0.2152 -0.8540
vn 0.2167 -0.6053 -0.7659
vn -0.4559 0.1139 -0.8827
vn -0.5036 -0.1429 -0.8521
vn 0.2926 -0.3518 -0.8892
vn -0.3126 -0.0152 -0.9498
vn -0.1153 -0.1506 -0.9818
vn -0.0018 0.0001 -1.0000
vn -0.0023 -0.0007 -1.0000
vn -0.0027 0.0001 -1.0000
vn -0.6772 -0.1535 -0.7196
vn -0.3941 -0.7352 -0.5515
vn -0.6733 0.2177 -0.7066
vn -0.7519 -0.0251 -0.6588
vn -0.6757 -0.1862 -0.7132
vn -0.6765 0.1586 -0.7191
vn -0.6593 0.0489 -0.7503
vn 0.8764 -0.3544 -0.3262
vn -0.5494 -0.7034 -0.4509
vn -0.2924 -0.3979 -0.8696
vn -0.0067 -0.1168 -0.9931
vn 0.2681 -0.0975 -0.9584
vn 0.4826 -0.3455 -0.8048
vn -0.0292 -0.9996 -0.0000
vn -0.9748 0.2230 -0.0000
vn 0.8687 -0.4954 -0.0000
vn -0.8477 0.5304 -0.0000
vn 0.9917 -0.1285 -0.0000
vn -0.4594 0.8882 -0.0000
vn 0.9551 0.2964 -0.0000
vn 0.8968 -0.4425 -0.0000
vn 0.8120 -0.5836 -0.0000
vn 0.9762 -0.2168 -0.0000
vn 0.9802 0.1983 -0.0000
# 647 vertex normals

vt 0.9042 0.0130 0.0000
vt 0.9042 0.1177 0.0000
vt 0.5664 0.1177 0.0000
vt 0.5664 0.0130 0.0000
vt 0.2799 0.1177 0.0000
vt 0.2799 0.0130 0.0000
vt 0.0167 0.9790 0.0000
vt 0.0832 0.9790 0.0000
vt 0.1248 0.8404 0.0000
vt 0.0167 0.8404 0.0000
vt 0.0167 0.6517 0.0000
vt 0.0727 0.6866 0.0000
vt 0.8613 0.4716 0.0000
vt 0.8917 0.4716 0.0000
vt 0.9269 0.3730 0.0000
vt 0.8615 0.5704 0.0000
vt 0.8918 0.5704 0.0000
vt 0.9147 0.6509 0.0000
vt 0.9321 0.6509 0.0000
vt 0.9298 0.6842 0.0000
vt 0.9147 0.6972 0.0000
vt 0.9868 0.6972 0.0000
vt 0.9868 0.6842 0.0000
vt 0.9868 0.7315 0.0000
vt 0.9156 0.7315 0.0000
vt 0.9381 0.7440 0.0000
vt 0.9868 0.7440 0.0000
vt 0.9868 0.3730 0.0000
vt 0.9868 0.3139 0.0000
vt 0.8963 0.3139 0.0000
vt 0.9868 0.2885 0.0000
vt 0.9510 0.2885 0.0000
vt 0.9868 0.2011 0.0000
vt 0.9090 0.2011 0.0000
vt 0.9868 0.0144 0.0000
vt 0.9868 0.6509 0.0000
vt 0.4669 0.1394 0.0000
vt 0.8303 0.1393 0.0000
vt 0.8303 0.2298 0.0000
vt 0.4669 0.2347 0.0000
vt 0.8303 0.1394 0.0000
vt 0.4668 0.1393 0.0000
vt 0.4551 0.8667 0.0000
vt 0.4038 0.9180 0.0000
vt 0.3526 0.8667 0.0000
vt 0.4038 0.8155 0.0000
vt 0.7205 0.8454 0.0000
vt 0.6711 0.8906 0.0000
vt 0.7251 0.8903 0.0000
vt 0.6266 0.8750 0.0000
vt 0.5602 0.9121 0.0000
vt 0.5960 0.9793 0.0000
vt 0.4382 0.9793 0.0000
vt 0.9318 0.9284 0.0000
vt 0.9881 0.9197 0.0000
vt 0.9857 0.8785 0.0000
vt 0.9330 0.8845 0.0000
vt 0.8729 0.8455 0.0000
vt 0.6687 0.9315 0.0000
vt 0.7614 0.9793 0.0000
vt 0.8724 0.9024 0.0000
vt 0.9895 0.9793 0.0000
vt 0.8737 0.9793 0.0000
vt 0.7963 0.8267 0.0000
vt 0.7983 0.8792 0.0000
vt 0.0462 0.2096 0.0000
vt 0.0103 0.2265 0.0000
vt 0.0103 0.1616 0.0000
vt 0.0557 0.1795 0.0000
vt 0.0504 0.6151 0.0000
vt 0.0103 0.6139 0.0000
vt 0.0103 0.5651 0.0000
vt 0.0535 0.5672 0.0000
vt 0.0804 0.3529 0.0000
vt 0.1902 0.3896 0.0000
vt 0.1547 0.4441 0.0000
vt 0.0822 0.4252 0.0000
vt 0.0669 0.4476 0.0000
vt 0.0653 0.5201 0.0000
vt 0.0302 0.5192 0.0000
vt 0.0455 0.4578 0.0000
vt 0.0103 0.4461 0.0000
vt 0.0880 0.4836 0.0000
vt 0.0922 0.4545 0.0000
vt 0.1481 0.4890 0.0000
vt 0.1897 0.4834 0.0000
vt 0.2318 0.5050 0.0000
vt 0.1493 0.5842 0.0000
vt 0.1144 0.5814 0.0000
vt 0.1414 0.5581 0.0000
vt 0.1056 0.6029 0.0000
vt 0.0729 0.6172 0.0000
vt 0.0695 0.2940 0.0000
vt 0.0103 0.2918 0.0000
vt 0.0484 0.2448 0.0000
vt 0.1342 0.6086 0.0000
vt 0.1305 0.5251 0.0000
vt 0.1786 0.6057 0.0000
vt 0.2162 0.5584 0.0000
vt 0.1675 0.5606 0.0000
vt 0.1832 0.5354 0.0000
vt 0.1679 0.5163 0.0000
vt 0.1748 0.4689 0.0000
vt 0.1894 0.5167 0.0000
vt 0.2238 0.4431 0.0000
vt 0.1987 0.4329 0.0000
vt 0.1970 0.4674 0.0000
vt 0.3389 0.3347 0.0000
vt 0.3748 0.3336 0.0000
vt 0.3407 0.3835 0.0000
vt 0.3472 0.4328 0.0000
vt 0.3022 0.4473 0.0000
vt 0.2934 0.3917 0.0000
vt 0.2587 0.7538 0.0000
vt 0.3076 0.7688 0.0000
vt 0.2656 0.8365 0.0000
vt 0.2364 0.8398 0.0000
vt 0.2028 0.8415 0.0000
vt 0.2586 0.9342 0.0000
vt 0.1883 0.7388 0.0000
vt 0.2629 0.6437 0.0000
vt 0.3307 0.6609 0.0000
vt 0.3588 0.7500 0.0000
vt 0.3650 0.5615 0.0000
vt 0.4452 0.5631 0.0000
vt 0.4252 0.6328 0.0000
vt 0.2817 0.5662 0.0000
vt 0.3587 0.4791 0.0000
vt 0.3981 0.4149 0.0000
vt 0.4115 0.4686 0.0000
vt 0.3736 0.3745 0.0000
vt 0.4162 0.3696 0.0000
vt 0.3879 0.6916 0.0000
vt 0.3306 0.7343 0.0000
vt 0.2632 0.4825 0.0000
vt 0.4130 0.5161 0.0000
vt 0.4710 0.5158 0.0000
vt 0.0103 0.3493 0.0000
vt 0.2948 0.3255 0.0000
vt 0.2109 0.4057 0.0000
vt 0.2527 0.2972 0.0000
vt 0.2411 0.3713 0.0000
vt 0.2005 0.2997 0.0000
vt 0.0878 0.2736 0.0000
vt 0.1295 0.2970 0.0000
vt 0.1822 0.2361 0.0000
vt 0.2241 0.2515 0.0000
vt 0.1356 0.2025 0.0000
vt 0.1475 0.2444 0.0000
vt 0.1509 0.1730 0.0000
vt 0.1942 0.1658 0.0000
vt 0.2263 0.2134 0.0000
vt 0.1108 0.1762 0.0000
vt 0.1555 0.0913 0.0000
vt 0.1737 0.0960 0.0000
vt 0.2002 0.1033 0.0000
vt 0.2515 0.0306 0.0000
vt 0.2608 0.2453 0.0000
vt 0.3037 0.2975 0.0000
vt 0.2767 0.1827 0.0000
vt 0.2578 0.2087 0.0000
vt 0.2496 0.1956 0.0000
vt 0.2998 0.2524 0.0000
vt 0.3355 0.2831 0.0000
vt 0.3187 0.2774 0.0000
vt 0.3620 0.2797 0.0000
vt 0.2706 0.2045 0.0000
vt 0.2783 0.2099 0.0000
vt 0.2889 0.2189 0.0000
vt 0.0461 0.1440 0.0000
vt 0.2950 0.1965 0.0000
vt 0.0103 0.0839 0.0000
vt 0.0549 0.1049 0.0000
vt 0.0462 0.0647 0.0000
vt 0.0483 0.0136 0.0000
vt 0.0103 0.0133 0.0000
vt 0.0687 0.1046 0.0000
vt 0.0576 0.0644 0.0000
vt 0.0906 0.2644 0.0000
vt 0.1263 0.2798 0.0000
vt 0.0575 0.2093 0.0000
vt 0.0693 0.1793 0.0000
vt 0.0604 0.2412 0.0000
vt 0.0575 0.1437 0.0000
vt 0.0638 0.0133 0.0000
vt 0.5577 0.4922 0.0000
vt 0.5577 0.4659 0.0000
vt 0.6364 0.4656 0.0000
vt 0.6364 0.4920 0.0000
vt 0.5262 0.4922 0.0000
vt 0.2393 0.3899 0.0000
vt 0.2760 0.4007 0.0000
vt 0.3290 0.2234 0.0000
vt 0.2847 0.4465 0.0000
vt 0.5512 0.3775 0.0000
vt 0.5514 0.4414 0.0000
vt 0.5134 0.4415 0.0000
vt 0.5132 0.3775 0.0000
vt 0.8030 0.3773 0.0000
vt 0.8031 0.4413 0.0000
vt 0.7289 0.4414 0.0000
vt 0.7287 0.3774 0.0000
vt 0.6007 0.3774 0.0000
vt 0.6009 0.4414 0.0000
vt 0.7027 0.3774 0.0000
vt 0.7028 0.4414 0.0000
vt 0.6717 0.4414 0.0000
vt 0.6715 0.3774 0.0000
vt 0.6353 0.3774 0.0000
vt 0.6355 0.4414 0.0000
vt 0.5612 0.2692 0.0000
vt 0.5612 0.3050 0.0000
vt 0.5407 0.2873 0.0000
vt 0.6421 0.2692 0.0000
vt 0.6995 0.2871 0.0000
vt 0.6421 0.3050 0.0000
vt 0.6031 0.3050 0.0000
vt 0.6031 0.2692 0.0000
# 218 texture coords

g obj____
usemtl Material__5
s 16
f 1/1/1 2/2/2 3/3/3 4/4/4 
f 4/4/4 3/3/3 5/5/5 6/6/6 
s 256
f 6/7/7 5/8/8 7/9/9 8/10/10 
f 9/11/11 8/10/10 7/9/9 10/12/12 
s 65536
f 11/13/13 12/14/14 13/15/15 
f 12/14/14 14/16/16 15/17/17 
f 11/13/13 14/16/16 12/14/14 
f 15/17/17 16/18/18 17/19/19 
f 14/16/16 16/18/18 15/17/17 
s 16
f 18/20/20 19/21/21 20/22/22 21/23/23 
f 22/24/24 23/25/25 2/26/2 1/27/1 
s 2
f 24/28/26 25/29/27 26/30/28 13/15/29 
f 27/31/30 28/32/31 26/30/28 25/29/27 
s 4
f 27/31/32 29/33/33 30/34/34 28/32/35 
f 29/33/33 31/35/36 30/34/34 
s 65536
f 13/15/15 12/14/14 24/28/37 
f 12/14/14 32/36/38 24/28/37 
f 15/17/17 32/36/38 12/14/14 
f 15/17/17 17/19/19 32/36/38 
f 32/36/38 17/19/19 18/20/39 21/23/40 
s 16
f 22/24/24 20/22/22 19/21/21 23/25/25 
f 33/1/41 34/4/42 3/3/3 2/2/2 
f 34/4/42 35/6/43 5/5/5 3/3/3 
s 256
f 35/7/44 36/10/45 7/9/9 5/8/8 
f 37/11/46 10/12/12 7/9/9 36/10/45 
s 65536
f 38/14/47 11/13/13 13/15/15 
f 14/16/16 38/14/47 39/17/48 
f 14/16/16 11/13/13 38/14/47 
f 16/18/18 39/17/48 40/19/49 
f 16/18/18 14/16/16 39/17/48 
s 16
f 41/23/50 19/21/21 18/20/20 
f 41/23/50 42/22/51 19/21/21 
f 33/27/41 23/25/25 43/24/52 
f 33/27/41 2/26/2 23/25/25 
s 2
f 44/28/53 13/15/29 45/29/54 
f 45/29/54 28/32/31 46/31/55 
f 45/29/54 26/30/28 28/32/31 
s 4
f 28/32/35 47/33/56 46/31/57 
f 28/32/35 30/34/34 47/33/56 
f 31/35/36 47/33/56 30/34/34 
s 65536
f 38/14/47 13/15/15 44/28/58 
f 48/36/59 38/14/47 44/28/58 
f 48/36/59 39/17/48 38/14/47 
f 40/19/49 39/17/48 48/36/59 
f 41/23/60 40/19/49 48/36/59 
f 41/23/60 18/20/39 40/19/49 
s 2
f 13/15/29 26/30/28 45/29/54 
s 16
f 23/25/25 42/22/51 43/24/52 
f 23/25/25 19/21/21 42/22/51 
s 65536
f 16/18/18 18/20/39 17/19/19 
f 18/20/39 16/18/18 40/19/49 
s 16
f 1/1/1 4/4/4 49/3/61 50/2/62 
f 4/4/4 6/6/6 51/5/63 49/3/61 
s 256
f 6/7/7 8/10/10 52/9/64 51/8/65 
f 9/11/11 53/12/66 52/9/64 8/10/10 
s 65536
f 54/14/67 55/13/68 56/15/69 
f 57/16/70 54/14/67 58/17/71 
f 57/16/70 55/13/68 54/14/67 
f 59/18/72 58/17/71 60/19/73 
f 59/18/72 57/16/70 58/17/71 
s 16
f 61/20/74 21/23/23 20/22/22 62/21/75 
f 22/24/24 1/27/1 50/26/62 63/25/76 
s 2
f 24/28/26 56/15/77 64/30/78 25/29/27 
f 27/31/30 25/29/27 64/30/78 65/32/79 
s 4
f 27/31/32 65/32/80 66/34/81 29/33/33 
f 31/35/36 29/33/33 66/34/81 
s 65536
f 54/14/67 56/15/69 24/28/37 
f 32/36/38 54/14/67 24/28/37 
f 32/36/38 58/17/71 54/14/67 
f 60/19/73 58/17/71 32/36/38 
f 32/36/38 21/23/40 61/20/82 60/19/73 
s 16
f 22/24/24 63/25/76 62/21/75 20/22/22 
f 33/1/41 50/2/62 49/3/61 34/4/42 
f 34/4/42 49/3/61 51/5/63 35/6/43 
s 256
f 35/7/44 51/8/65 52/9/64 36/10/45 
f 37/11/46 36/10/45 52/9/64 53/12/66 
s 65536
f 55/13/68 67/14/83 56/15/69 
f 67/14/83 57/16/70 68/17/84 
f 55/13/68 57/16/70 67/14/83 
f 68/17/84 59/18/72 69/19/85 
f 57/16/70 59/18/72 68/17/84 
s 16
f 62/21/75 41/23/50 61/20/74 
f 42/22/51 41/23/50 62/21/75 
f 63/25/76 33/27/41 43/24/52 
f 50/26/62 33/27/41 63/25/76 
s 2
f 56/15/77 44/28/53 45/29/54 
f 65/32/79 45/29/54 46/31/55 
f 64/30/78 45/29/54 65/32/79 
s 4
f 47/33/56 65/32/80 46/31/57 
f 66/34/81 65/32/80 47/33/56 
f 47/33/56 31/35/36 66/34/81 
s 65536
f 56/15/69 67/14/83 44/28/58 
f 67/14/83 48/36/59 44/28/58 
f 68/17/84 48/36/59 67/14/83 
f 68/17/84 69/19/85 48/36/59 
f 69/19/85 41/23/60 48/36/59 
f 61/20/82 41/23/60 69/19/85 
s 2
f 64/30/78 56/15/77 45/29/54 
s 16
f 42/22/51 63/25/76 43/24/52 
f 62/21/75 63/25/76 42/22/51 
s 65536
f 61/20/82 59/18/72 60/19/73 
f 59/18/72 61/20/82 69/19/85 
s off
f 70/37/86 9/38/86 10/39/86 71/40/86 
f 71/40/87 10/39/87 37/41/87 72/42/87 
f 73/40/88 53/39/88 9/38/88 70/37/88 
f 72/42/89 37/41/89 53/39/89 73/40/89 
f 71/43/90 72/44/90 73/45/90 70/46/90 
s 16
f 74/47/91 75/48/92 76/49/93 
f 77/50/94 78/51/95 79/52/96 
f 79/52/96 78/51/95 80/53/97 
s 256
f 81/54/98 82/55/99 83/56/100 84/57/101 
f 81/54/98 84/57/101 85/58/102 
s 16
f 86/59/103 79/52/96 87/60/104 
s 65536
f 81/54/105 85/58/106 88/61/107 
f 76/49/108 75/48/109 86/59/110 
f 89/62/111 81/54/105 90/63/112 
f 82/55/113 81/54/105 89/62/111 
s 16
f 88/61/114 85/58/115 91/64/116 92/65/117 
f 77/50/94 86/59/103 75/48/92 
f 79/52/96 86/59/103 77/50/94 
s 65536
f 90/63/112 88/61/107 92/65/118 87/60/119 
f 87/60/119 76/49/108 86/59/110 
f 81/54/105 88/61/107 90/63/112 
s 256
f 93/66/120 94/67/121 95/68/122 96/69/123 
f 82/70/99 89/71/124 97/72/125 98/73/126 
f 99/74/127 100/75/128 101/76/129 102/77/129 
f 102/77/129 103/78/129 99/74/127 
s 16777216
f 104/79/129 98/73/129 105/80/129 
s 256
f 106/81/129 105/80/129 107/82/129 
f 108/83/129 109/84/129 101/76/129 110/85/129 
s 16
f 110/85/130 111/86/131 112/87/132 
f 113/88/133 114/89/134 115/90/135 
s 256
f 82/70/99 114/89/136 116/91/137 83/92/100 
f 105/80/129 98/73/126 97/72/125 
f 105/80/129 97/72/125 107/82/129 
s 1024
f 117/93/138 118/94/139 94/67/140 119/95/141 
s 16
f 92/65/117 91/64/116 74/47/91 76/49/93 
s 65536
f 76/49/108 87/60/119 92/65/118 
s 256
f 98/73/126 114/89/136 82/70/99 
f 120/96/142 116/91/137 114/89/136 
f 98/73/126 104/79/143 114/89/136 
f 121/97/144 114/89/136 104/79/143 
s 16
f 121/97/145 115/90/135 114/89/134 
f 122/98/146 114/89/134 113/88/133 
s 256
f 122/98/147 120/96/142 114/89/136 
s 16
f 123/99/148 124/100/149 121/97/145 
f 123/99/148 121/97/145 125/101/150 
f 110/85/130 126/102/151 121/97/145 
s 256
f 108/83/129 121/97/144 104/79/143 
f 110/85/129 121/97/144 108/83/129 
s 16
f 115/90/135 121/97/145 124/100/149 
f 126/102/151 125/101/150 121/97/145 
f 101/76/152 127/103/153 110/85/130 
f 112/87/132 128/104/154 110/85/130 
f 126/102/151 110/85/130 128/104/154 
f 127/103/153 111/86/131 110/85/130 
f 129/105/155 101/76/152 130/106/156 
f 100/75/157 130/106/156 101/76/152 
f 129/105/155 131/107/158 101/76/152 
f 127/103/153 101/76/152 131/107/158 
f 132/108/159 133/109/160 134/110/161 
s 256
f 135/111/162 136/112/163 137/113/164 
f 138/114/165 139/115/166 140/116/167 141/117/168 
f 142/118/169 141/117/168 143/119/170 
f 144/120/171 145/121/172 146/122/173 138/114/165 
s 16
f 147/123/174 139/115/175 138/114/176 
f 146/122/177 148/124/178 149/125/179 150/126/180 
s 256
f 145/121/172 151/127/181 148/124/182 146/122/173 
s 16
f 152/128/183 135/111/184 153/129/185 154/130/186 
s 256
f 135/111/162 137/113/164 134/110/187 
s 16
f 155/131/188 156/132/189 135/111/184 
s 256
f 143/119/170 141/117/168 140/116/167 
f 141/117/168 142/118/169 144/120/171 138/114/165 
s 16
f 138/114/176 146/122/177 157/133/190 158/134/191 
f 158/134/191 147/123/174 138/114/176 
s 256
f 151/127/181 159/135/192 152/128/193 148/124/182 
s 16
f 148/124/178 152/128/183 154/130/186 160/136/194 
f 161/137/195 148/124/178 160/136/194 
s 1024
f 162/138/129 99/74/196 103/78/129 
s 256
f 134/110/187 137/113/164 163/139/197 132/108/198 
f 136/112/163 135/111/162 152/128/193 159/135/192 
f 130/106/199 100/75/128 164/140/200 
f 165/141/201 166/142/202 100/75/128 167/143/203 
s 16
f 156/132/189 153/129/185 135/111/184 
f 134/110/161 155/131/188 135/111/184 
f 161/137/195 149/125/179 148/124/178 
f 150/126/180 157/133/190 146/122/177 
s 256
f 168/144/204 169/145/205 117/93/206 
f 100/75/128 99/74/127 169/145/205 167/143/203 
s off
f 169/145/207 170/146/207 167/143/207 
f 170/146/208 171/147/208 167/143/208 
s 256
f 102/77/129 101/76/129 109/84/129 
s 1024
f 107/82/129 162/138/129 103/78/129 
s off
f 172/148/209 170/146/209 173/149/209 
f 170/146/210 174/150/210 175/151/210 176/152/210 
f 174/150/211 177/153/211 178/154/211 179/155/211 
f 175/151/212 174/150/212 179/155/212 180/156/212 
f 181/157/213 179/155/213 178/154/213 
f 181/157/214 180/156/214 179/155/214 
s 256
f 99/74/127 117/93/206 169/145/205 
s 1024
f 118/94/139 117/93/138 99/74/196 162/138/129 
s off
f 171/147/215 182/158/215 165/141/215 
f 163/139/216 183/159/216 132/108/216 
f 184/160/217 185/161/217 186/162/217 
f 183/159/218 182/158/218 187/163/218 
s 16
f 188/164/219 132/108/159 183/159/220 189/165/221 
f 190/166/222 133/109/160 132/108/159 
s off
f 191/167/223 192/168/223 182/158/223 
f 192/168/224 193/169/224 182/158/224 
f 184/160/225 191/167/225 185/161/225 
f 176/152/226 171/147/226 170/146/226 
f 176/152/227 182/158/227 171/147/227 
f 193/169/228 187/163/228 182/158/228 
s 256
f 194/170/229 96/69/123 95/68/122 
s off
f 177/153/230 174/150/230 172/148/230 
f 174/150/231 170/146/231 172/148/231 
f 195/171/232 192/168/232 191/167/232 
f 195/171/233 193/169/233 192/168/233 
f 182/158/234 185/161/234 191/167/234 
f 176/152/235 186/162/235 185/161/235 
s 16
f 188/164/219 190/166/222 132/108/159 
s off
f 182/158/236 183/159/236 165/141/236 
s 256
f 119/95/237 94/67/121 93/66/120 
f 95/68/122 196/172/238 197/173/239 194/170/229 
f 198/174/240 197/173/239 196/172/238 
s off
f 199/175/241 198/174/241 196/172/241 200/176/241 
f 201/177/242 197/173/242 198/174/242 202/178/242 
f 169/145/243 168/144/243 203/179/243 204/180/243 
f 205/181/244 93/66/244 96/69/244 206/182/244 
f 207/183/245 119/95/245 93/66/245 205/181/245 
f 206/182/246 96/69/246 194/170/246 208/184/246 
f 208/184/247 194/170/247 197/173/247 201/177/247 
f 202/178/248 198/174/248 199/175/248 209/185/248 
f 204/180/249 173/149/249 169/145/249 
s 256
f 119/95/237 168/144/204 117/93/206 
s off
f 203/179/250 168/144/250 119/95/250 207/183/250 
f 210/186/251 199/187/251 200/188/251 211/189/251 
f 210/186/36 209/190/36 199/187/36 
s 256
f 164/140/200 100/75/128 166/142/202 212/191/252 
s 1024
f 106/81/129 107/82/129 103/78/129 
s 256
f 213/192/253 212/191/252 166/142/202 137/113/164 
f 137/113/164 166/142/202 165/141/201 163/139/197 
s off
f 165/141/254 183/159/254 163/139/254 
s 16
f 214/193/255 188/164/219 189/165/221 
f 214/193/255 190/166/222 188/164/219 
f 133/109/160 155/131/188 134/110/161 
s off
f 167/143/256 171/147/256 165/141/256 
f 182/158/257 176/152/257 185/161/257 
f 173/149/258 170/146/258 169/145/258 
s 256
f 215/194/259 136/112/163 159/135/192 
f 215/194/259 213/192/253 137/113/164 136/112/163 
s 16
f 75/48/92 74/47/91 216/49/260 
f 78/51/95 77/50/94 217/52/261 
f 78/51/95 217/52/261 80/53/97 
s 256
f 83/56/100 218/55/262 219/54/263 84/57/101 
f 84/57/101 219/54/263 85/58/102 
s 16
f 217/52/261 220/59/264 221/60/265 
s 65536
f 85/58/106 219/54/266 222/61/267 
f 75/48/109 216/49/268 220/59/269 
f 219/54/266 223/62/270 224/63/271 
f 219/54/266 218/55/272 223/62/270 
s 16
f 91/64/116 85/58/115 222/61/273 225/65/274 
f 220/59/264 77/50/94 75/48/92 
f 220/59/264 217/52/261 77/50/94 
s 65536
f 225/65/275 222/61/267 224/63/271 221/60/276 
f 216/49/268 221/60/276 220/59/269 
f 222/61/267 219/54/266 224/63/271 
s 256
f 226/68/277 227/67/278 228/66/279 229/69/280 
f 230/72/281 223/71/282 218/70/262 231/73/283 
f 232/76/284 233/75/285 234/74/286 235/77/284 
f 236/78/284 235/77/284 234/74/286 
s 16777216
f 231/73/284 237/79/284 238/80/284 
s 256
f 238/80/284 239/81/284 240/82/284 
f 232/76/284 241/84/284 242/83/284 243/85/284 
s 16
f 111/86/131 243/85/287 112/87/132 
f 244/89/288 113/88/133 115/90/135 
s 256
f 116/91/137 244/89/289 218/70/262 83/92/100 
f 231/73/283 238/80/284 230/72/281 
f 230/72/281 238/80/284 240/82/284 
s 1024
f 227/67/290 245/94/291 246/93/292 247/95/293 
s 16
f 74/47/91 91/64/116 225/65/274 216/49/260 
s 65536
f 221/60/276 216/49/268 225/65/275 
s 256
f 244/89/289 231/73/283 218/70/262 
f 116/91/137 120/96/142 244/89/289 
f 237/79/294 231/73/283 244/89/289 
f 244/89/289 248/97/295 237/79/294 
s 16
f 115/90/135 248/97/296 244/89/288 
f 244/89/288 122/98/146 113/88/133 
s 256
f 120/96/142 122/98/147 244/89/289 
s 16
f 124/100/149 123/99/148 248/97/296 
f 248/97/296 123/99/148 125/101/150 
f 126/102/151 243/85/287 248/97/296 
s 256
f 248/97/295 242/83/284 237/79/294 
f 248/97/295 243/85/284 242/83/284 
s 16
f 248/97/296 115/90/135 124/100/149 
f 125/101/150 126/102/151 248/97/296 
f 127/103/153 232/76/297 243/85/287 
f 128/104/154 112/87/132 243/85/287 
f 243/85/287 126/102/151 128/104/154 
f 111/86/131 127/103/153 243/85/287 
f 232/76/297 129/105/155 130/106/156 
f 130/106/156 233/75/298 232/76/297 
f 131/107/158 129/105/155 232/76/297 
f 232/76/297 127/103/153 131/107/158 
f 133/109/160 249/108/299 250/110/300 
s 256
f 251/112/301 252/111/302 253/113/303 
f 140/116/167 139/115/166 254/114/304 255/117/305 
f 255/117/305 142/118/169 143/119/170 
f 256/122/306 257/121/307 144/120/171 254/114/304 
s 16
f 139/115/175 147/123/174 254/114/308 
f 149/125/179 258/124/309 256/122/310 150/126/180 
s 256
f 258/124/311 259/127/312 257/121/307 256/122/306 
s 16
f 153/129/185 252/111/313 260/128/314 154/130/186 
s 256
f 253/113/303 252/111/302 250/110/315 
s 16
f 156/132/189 155/131/188 252/111/313 
s 256
f 255/117/305 143/119/170 140/116/167 
f 144/120/171 142/118/169 255/117/305 254/114/304 
s 16
f 157/133/190 256/122/310 254/114/308 158/134/191 
f 147/123/174 158/134/191 254/114/308 
s 256
f 260/128/316 261/135/317 259/127/312 258/124/311 
s 16
f 154/130/186 260/128/314 258/124/309 160/136/194 
f 258/124/309 161/137/195 160/136/194 
s 1024
f 234/74/318 262/138/284 236/78/284 
s 256
f 263/139/319 253/113/303 250/110/315 249/108/320 
f 260/128/316 252/111/302 251/112/301 261/135/317 
f 233/75/285 130/106/199 164/140/200 
f 233/75/285 264/142/321 265/141/322 266/143/323 
s 16
f 153/129/185 156/132/189 252/111/313 
f 155/131/188 250/110/300 252/111/313 
f 149/125/179 161/137/195 258/124/309 
f 157/133/190 150/126/180 256/122/310 
s 256
f 267/145/324 268/144/325 246/93/326 
f 267/145/324 234/74/286 233/75/285 266/143/323 
s off
f 269/146/327 267/145/327 266/143/327 
f 270/147/328 269/146/328 266/143/328 
s 256
f 232/76/284 235/77/284 241/84/284 
s 1024
f 262/138/284 240/82/284 236/78/284 
s off
f 269/146/329 172/148/329 173/149/329 
f 175/151/330 271/150/330 269/146/330 176/152/330 
f 178/154/331 177/153/331 271/150/331 272/155/331 
f 272/155/332 271/150/332 175/151/332 180/156/332 
f 272/155/333 181/157/333 178/154/333 
f 180/156/334 181/157/334 272/155/334 
s 256
f 246/93/326 234/74/286 267/145/324 
s 1024
f 234/74/318 246/93/292 245/94/291 262/138/284 
s off
f 273/158/335 270/147/335 265/141/335 
f 183/159/336 263/139/336 249/108/336 
f 274/161/337 184/160/337 186/162/337 
f 273/158/338 183/159/338 187/163/338 
s 16
f 183/159/220 249/108/299 275/164/339 189/165/221 
f 133/109/160 190/166/222 249/108/299 
s off
f 276/168/340 191/167/340 273/158/340 
f 193/169/341 276/168/341 273/158/341 
f 191/167/342 184/160/342 274/161/342 
f 270/147/343 176/152/343 269/146/343 
f 273/158/344 176/152/344 270/147/344 
f 187/163/345 193/169/345 273/158/345 
s 256
f 229/69/280 277/170/346 226/68/277 
s off
f 271/150/347 177/153/347 172/148/347 
f 269/146/348 271/150/348 172/148/348 
f 276/168/349 195/171/349 191/167/349 
f 193/169/350 195/171/350 276/168/350 
f 274/161/351 273/158/351 191/167/351 
f 186/162/352 176/152/352 274/161/352 
s 16
f 190/166/222 275/164/339 249/108/299 
s off
f 183/159/353 273/158/353 265/141/353 
s 256
f 227/67/278 247/95/354 228/66/279 
f 278/173/355 279/172/356 226/68/277 277/170/346 
f 278/173/355 280/174/357 279/172/356 
s off
f 279/172/358 280/174/358 281/175/358 282/176/358 
f 280/174/359 278/173/359 201/177/359 202/178/359 
f 203/179/360 268/144/360 267/145/360 204/180/360 
f 229/69/361 228/66/361 205/181/361 206/182/361 
f 228/66/362 247/95/362 207/183/362 205/181/362 
f 277/170/363 229/69/363 206/182/363 208/184/363 
f 278/173/364 277/170/364 208/184/364 201/177/364 
f 281/175/365 280/174/365 202/178/365 209/185/365 
f 173/149/366 204/180/366 267/145/366 
s 256
f 268/144/325 247/95/354 246/93/326 
s off
f 247/95/367 268/144/367 203/179/367 207/183/367 
f 282/188/251 281/187/251 210/186/251 211/189/251 
f 209/190/36 210/186/36 281/187/36 
s 256
f 264/142/321 233/75/285 164/140/200 212/191/252 
s 1024
f 240/82/284 239/81/284 236/78/284 
s 256
f 264/142/321 212/191/252 213/192/253 253/113/303 
f 265/141/322 264/142/321 253/113/303 263/139/319 
s off
f 183/159/368 265/141/368 263/139/368 
s 16
f 275/164/339 214/193/255 189/165/221 
f 190/166/222 214/193/255 275/164/339 
f 155/131/188 133/109/160 250/110/300 
s off
f 270/147/369 266/143/369 265/141/369 
f 176/152/370 273/158/370 274/161/370 
f 269/146/371 173/149/371 267/145/371 
s 256
f 251/112/301 215/194/259 261/135/317 
f 253/113/303 213/192/253 215/194/259 251/112/301 
s off
f 237/195/372 104/196/372 105/197/372 238/198/372 
f 238/199/373 105/200/373 106/201/373 239/202/373 
f 242/203/374 108/204/374 104/196/374 237/195/374 
f 236/205/375 103/206/375 102/207/375 235/208/375 
f 241/209/376 109/210/376 108/204/376 242/203/376 
f 239/202/377 106/201/377 103/206/377 236/205/377 
f 235/208/378 102/207/378 109/210/378 241/209/378 
f 159/211/379 261/212/379 215/213/379 
f 145/214/380 144/215/380 257/216/380 
f 259/217/381 151/218/381 145/214/381 257/216/381 
f 261/212/382 159/211/382 151/218/382 259/217/382 
s 16
f 283/48/383 284/47/384 285/49/385 
f 286/51/386 287/50/387 79/52/96 
f 286/51/386 79/52/96 80/53/97 
s 256
f 288/56/388 289/55/389 290/54/390 291/57/391 
f 291/57/391 290/54/390 292/58/392 
s 16
f 79/52/96 293/59/393 87/60/104 
s 65536
f 292/58/394 290/54/395 294/61/396 
f 283/48/397 285/49/398 293/59/399 
f 290/54/395 89/62/111 90/63/112 
f 290/54/395 289/55/400 89/62/111 
s 16
f 295/64/401 292/58/402 294/61/403 296/65/404 
f 293/59/393 287/50/387 283/48/383 
f 293/59/393 79/52/96 287/50/387 
s 65536
f 296/65/405 294/61/396 90/63/112 87/60/119 
f 285/49/398 87/60/119 293/59/399 
f 294/61/396 290/54/395 90/63/112 
s 256
f 95/68/122 94/67/121 297/66/406 298/69/407 
f 97/72/125 89/71/124 289/70/389 299/73/408 
f 300/76/129 301/75/409 302/74/410 303/77/129 
f 304/78/129 303/77/129 302/74/410 
s 16777216
f 299/73/129 305/79/129 306/80/129 
s 256
f 306/80/129 307/81/129 107/82/129 
f 300/76/129 308/84/129 309/83/129 310/85/129 
s 16
f 311/86/411 310/85/412 312/87/413 
f 313/89/414 314/88/415 315/90/416 
s 256
f 316/91/417 313/89/418 289/70/389 288/92/388 
f 299/73/408 306/80/129 97/72/125 
f 97/72/125 306/80/129 107/82/129 
s 1024
f 94/67/140 118/94/139 317/93/419 318/95/420 
s 16
f 284/47/384 295/64/401 296/65/404 285/49/385 
s 65536
f 87/60/119 285/49/398 296/65/405 
s 256
f 313/89/418 299/73/408 289/70/389 
f 316/91/417 319/96/421 313/89/418 
f 305/79/422 299/73/408 313/89/418 
f 313/89/418 320/97/423 305/79/422 
s 16
f 315/90/416 320/97/424 313/89/414 
f 313/89/414 321/98/425 314/88/415 
s 256
f 319/96/421 321/98/426 313/89/418 
s 16
f 322/100/427 323/99/428 320/97/424 
f 320/97/424 323/99/428 324/101/429 
f 325/102/430 310/85/412 320/97/424 
s 256
f 320/97/423 309/83/129 305/79/422 
f 320/97/423 310/85/129 309/83/129 
s 16
f 320/97/424 315/90/416 322/100/427 
f 324/101/429 325/102/430 320/97/424 
f 326/103/431 300/76/432 310/85/412 
f 327/104/433 312/87/413 310/85/412 
f 310/85/412 325/102/430 327/104/433 
f 311/86/411 326/103/431 310/85/412 
f 300/76/432 328/105/434 329/106/435 
f 329/106/435 301/75/436 300/76/432 
f 330/107/437 328/105/434 300/76/432 
f 300/76/432 326/103/431 330/107/437 
f 331/109/438 332/108/439 333/110/440 
s 256
f 334/112/441 335/111/442 336/113/443 
f 337/116/444 338/115/445 339/114/446 340/117/447 
f 340/117/447 341/118/448 342/119/449 
f 343/122/450 344/121/451 345/120/452 339/114/446 
s 16
f 338/115/453 346/123/454 339/114/455 
f 347/125/456 348/124/457 343/122/458 349/126/459 
s 256
f 348/124/460 350/127/461 344/121/451 343/122/450 
s 16
f 351/129/462 335/111/463 352/128/464 353/130/465 
s 256
f 336/113/443 335/111/442 333/110/466 
s 16
f 354/132/467 355/131/468 335/111/463 
s 256
f 340/117/447 342/119/449 337/116/444 
f 345/120/452 341/118/448 340/117/447 339/114/446 
s 16
f 356/133/469 343/122/458 339/114/455 357/134/470 
f 346/123/454 357/134/470 339/114/455 
s 256
f 352/128/471 358/135/472 350/127/461 348/124/460 
s 16
f 353/130/465 352/128/464 348/124/457 359/136/473 
f 348/124/457 360/137/474 359/136/473 
s 1024
f 302/74/475 162/138/129 304/78/129 
s 256
f 361/139/476 336/113/443 333/110/466 332/108/477 
f 352/128/471 335/111/442 334/112/441 358/135/472 
f 301/75/409 329/106/478 362/140/479 
f 301/75/409 363/142/480 364/141/481 365/143/482 
s 16
f 351/129/462 354/132/467 335/111/463 
f 355/131/468 333/110/440 335/111/463 
f 347/125/456 360/137/474 348/124/457 
f 356/133/469 349/126/459 343/122/458 
s 256
f 366/145/483 367/144/484 317/93/485 
f 366/145/483 302/74/410 301/75/409 365/143/482 
s off
f 368/146/486 366/145/486 365/143/486 
f 369/147/487 368/146/487 365/143/487 
s 256
f 300/76/129 303/77/129 308/84/129 
s 1024
f 162/138/129 107/82/129 304/78/129 
s off
f 368/146/488 370/148/488 371/149/488 
f 372/151/489 373/150/489 368/146/489 374/152/489 
f 375/154/490 376/153/490 373/150/490 377/155/490 
f 377/155/491 373/150/491 372/151/491 378/156/491 
f 377/155/492 379/157/492 375/154/492 
f 378/156/493 379/157/493 377/155/493 
s 256
f 317/93/485 302/74/410 366/145/483 
s 1024
f 302/74/475 317/93/419 118/94/139 162/138/129 
s off
f 380/158/494 369/147/494 364/141/494 
f 381/159/495 361/139/495 332/108/495 
f 382/161/496 383/160/496 384/162/496 
f 380/158/497 381/159/497 385/163/497 
s 16
f 381/159/498 332/108/439 386/164/499 387/165/500 
f 331/109/438 388/166/501 332/108/439 
s off
f 389/168/502 390/167/502 380/158/502 
f 391/169/503 389/168/503 380/158/503 
f 390/167/504 383/160/504 382/161/504 
f 369/147/505 374/152/505 368/146/505 
f 380/158/506 374/152/506 369/147/506 
f 385/163/507 391/169/507 380/158/507 
s 256
f 298/69/407 392/170/508 95/68/122 
s off
f 373/150/509 376/153/509 370/148/509 
f 368/146/510 373/150/510 370/148/510 
f 389/168/511 393/171/511 390/167/511 
f 391/169/512 393/171/512 389/168/512 
f 382/161/513 380/158/513 390/167/513 
f 384/162/514 374/152/514 382/161/514 
s 16
f 388/166/501 386/164/499 332/108/439 
s off
f 381/159/515 380/158/515 364/141/515 
s 256
f 94/67/121 318/95/516 297/66/406 
f 394/173/517 196/172/238 95/68/122 392/170/508 
f 394/173/517 395/174/518 196/172/238 
s off
f 196/172/519 395/174/519 396/175/519 200/176/519 
f 395/174/520 394/173/520 397/177/520 398/178/520 
f 399/179/521 367/144/521 366/145/521 400/180/521 
f 298/69/522 297/66/522 401/181/522 402/182/522 
f 297/66/523 318/95/523 403/183/523 401/181/523 
f 392/170/524 298/69/524 402/182/524 404/184/524 
f 394/173/525 392/170/525 404/184/525 397/177/525 
f 396/175/526 395/174/526 398/178/526 405/185/526 
f 371/149/527 400/180/527 366/145/527 
s 256
f 367/144/484 318/95/516 317/93/485 
s off
f 318/95/528 367/144/528 399/179/528 403/183/528 
f 200/188/529 396/187/529 406/186/529 211/189/529 
f 405/190/36 406/186/36 396/187/36 
s 256
f 363/142/480 301/75/409 362/140/479 407/191/530 
s 1024
f 107/82/129 307/81/129 304/78/129 
s 256
f 363/142/480 407/191/530 408/192/531 336/113/443 
f 364/141/481 363/142/480 336/113/443 361/139/476 
s off
f 381/159/532 364/141/532 361/139/532 
s 16
f 386/164/499 409/193/533 387/165/500 
f 388/166/501 409/193/533 386/164/499 
f 355/131/468 331/109/438 333/110/440 
s off
f 369/147/534 365/143/534 364/141/534 
f 374/152/535 380/158/535 382/161/535 
f 368/146/536 371/149/536 366/145/536 
s 256
f 334/112/441 410/194/537 358/135/472 
f 336/113/443 408/192/531 410/194/537 334/112/441 
s 16
f 284/47/384 283/48/383 411/49/538 
f 287/50/387 286/51/386 217/52/261 
f 217/52/261 286/51/386 80/53/97 
s 256
f 412/54/539 413/55/540 288/56/388 291/57/391 
f 412/54/539 291/57/391 292/58/392 
s 16
f 414/59/541 217/52/261 221/60/265 
s 65536
f 412/54/542 292/58/394 415/61/543 
f 411/49/544 283/48/397 414/59/545 
f 223/62/270 412/54/542 224/63/271 
f 413/55/546 412/54/542 223/62/270 
s 16
f 415/61/547 292/58/402 295/64/401 416/65/548 
f 287/50/387 414/59/541 283/48/383 
f 217/52/261 414/59/541 287/50/387 
s 65536
f 224/63/271 415/61/543 416/65/549 221/60/276 
f 221/60/276 411/49/544 414/59/545 
f 412/54/542 415/61/543 224/63/271 
s 256
f 417/66/550 227/67/278 226/68/277 418/69/551 
f 413/70/540 223/71/282 230/72/281 419/73/552 
f 420/74/553 421/75/554 422/76/284 423/77/284 
f 423/77/284 424/78/284 420/74/553 
s 16777216
f 425/79/284 419/73/284 426/80/284 
s 256
f 427/81/284 426/80/284 240/82/284 
f 428/83/284 429/84/284 422/76/284 430/85/284 
s 16
f 430/85/555 311/86/411 312/87/413 
f 314/88/415 431/89/556 315/90/416 
s 256
f 413/70/540 431/89/557 316/91/417 288/92/388 
f 426/80/284 419/73/552 230/72/281 
f 426/80/284 230/72/281 240/82/284 
s 1024
f 432/93/558 245/94/291 227/67/290 433/95/559 
s 16
f 416/65/548 295/64/401 284/47/384 411/49/538 
s 65536
f 411/49/544 221/60/276 416/65/549 
s 256
f 419/73/552 431/89/557 413/70/540 
f 319/96/421 316/91/417 431/89/557 
f 419/73/552 425/79/560 431/89/557 
f 434/97/561 431/89/557 425/79/560 
s 16
f 434/97/562 315/90/416 431/89/556 
f 321/98/425 431/89/556 314/88/415 
s 256
f 321/98/426 319/96/421 431/89/557 
s 16
f 323/99/428 322/100/427 434/97/562 
f 323/99/428 434/97/562 324/101/429 
f 430/85/555 325/102/430 434/97/562 
s 256
f 428/83/284 434/97/561 425/79/560 
f 430/85/284 434/97/561 428/83/284 
s 16
f 315/90/416 434/97/562 322/100/427 
f 325/102/430 324/101/429 434/97/562 
f 422/76/563 326/103/431 430/85/555 
f 312/87/413 327/104/433 430/85/555 
f 325/102/430 430/85/555 327/104/433 
f 326/103/431 311/86/411 430/85/555 
f 328/105/434 422/76/563 329/106/435 
f 421/75/564 329/106/435 422/76/563 
f 328/105/434 330/107/437 422/76/563 
f 326/103/431 422/76/563 330/107/437 
f 435/108/565 331/109/438 436/110/566 
s 256
f 437/111/567 438/112/568 439/113/569 
f 440/114/570 338/115/445 337/116/444 441/117/571 
f 341/118/448 441/117/571 342/119/449 
f 345/120/452 442/121/572 443/122/573 440/114/570 
s 16
f 346/123/454 338/115/453 440/114/574 
f 443/122/575 444/124/576 347/125/456 349/126/459 
s 256
f 442/121/572 445/127/577 444/124/578 443/122/573 
s 16
f 446/128/579 437/111/580 351/129/462 353/130/465 
s 256
f 437/111/567 439/113/569 436/110/581 
s 16
f 355/131/468 354/132/467 437/111/580 
s 256
f 342/119/449 441/117/571 337/116/444 
f 441/117/571 341/118/448 345/120/452 440/114/570 
s 16
f 440/114/574 443/122/575 356/133/469 357/134/470 
f 357/134/470 346/123/454 440/114/574 
s 256
f 445/127/577 447/135/582 446/128/583 444/124/578 
s 16
f 444/124/576 446/128/579 353/130/465 359/136/473 
f 360/137/474 444/124/576 359/136/473 
s 1024
f 262/138/284 420/74/584 424/78/284 
s 256
f 436/110/581 439/113/569 448/139/585 435/108/586 
f 438/112/568 437/111/567 446/128/583 447/135/582 
f 329/106/478 421/75/554 362/140/479 
f 449/141/587 450/142/588 421/75/554 451/143/589 
s 16
f 354/132/467 351/129/462 437/111/580 
f 436/110/566 355/131/468 437/111/580 
f 360/137/474 347/125/456 444/124/576 
f 349/126/459 356/133/469 443/122/575 
s 256
f 452/144/590 453/145/591 432/93/592 
f 421/75/554 420/74/553 453/145/591 451/143/589 
s off
f 453/145/593 454/146/593 451/143/593 
f 454/146/594 455/147/594 451/143/594 
s 256
f 423/77/284 422/76/284 429/84/284 
s 1024
f 240/82/284 262/138/284 424/78/284 
s off
f 370/148/595 454/146/595 371/149/595 
f 454/146/596 456/150/596 372/151/596 374/152/596 
f 456/150/597 376/153/597 375/154/597 457/155/597 
f 372/151/598 456/150/598 457/155/598 378/156/598 
f 379/157/599 457/155/599 375/154/599 
f 379/157/600 378/156/600 457/155/600 
s 256
f 420/74/553 432/93/592 453/145/591 
s 1024
f 245/94/291 432/93/558 420/74/584 262/138/284 
s off
f 455/147/601 458/158/601 449/141/601 
f 448/139/602 381/159/602 435/108/602 
f 383/160/603 459/161/603 384/162/603 
f 381/159/604 458/158/604 385/163/604 
s 16
f 460/164/605 435/108/565 381/159/498 387/165/500 
f 388/166/501 331/109/438 435/108/565 
s off
f 390/167/606 461/168/606 458/158/606 
f 461/168/607 391/169/607 458/158/607 
f 383/160/608 390/167/608 459/161/608 
f 374/152/609 455/147/609 454/146/609 
f 374/152/610 458/158/610 455/147/610 
f 391/169/611 385/163/611 458/158/611 
s 256
f 462/170/612 418/69/551 226/68/277 
s off
f 376/153/613 456/150/613 370/148/613 
f 456/150/614 454/146/614 370/148/614 
f 393/171/615 461/168/615 390/167/615 
f 393/171/616 391/169/616 461/168/616 
f 458/158/617 459/161/617 390/167/617 
f 374/152/618 384/162/618 459/161/618 
s 16
f 460/164/605 388/166/501 435/108/565 
s off
f 458/158/619 381/159/619 449/141/619 
s 256
f 433/95/620 227/67/278 417/66/550 
f 226/68/277 279/172/356 463/173/621 462/170/612 
f 464/174/622 463/173/621 279/172/356 
s off
f 465/175/623 464/174/623 279/172/623 282/176/623 
f 397/177/624 463/173/624 464/174/624 398/178/624 
f 453/145/625 452/144/625 399/179/625 400/180/625 
f 401/181/626 417/66/626 418/69/626 402/182/626 
f 403/183/627 433/95/627 417/66/627 401/181/627 
f 402/182/628 418/69/628 462/170/628 404/184/628 
f 404/184/629 462/170/629 463/173/629 397/177/629 
f 398/178/630 464/174/630 465/175/630 405/185/630 
f 400/180/631 371/149/631 453/145/631 
s 256
f 433/95/620 452/144/590 432/93/592 
s off
f 399/179/632 452/144/632 433/95/632 403/183/632 
f 406/186/529 465/187/529 282/188/529 211/189/529 
f 406/186/36 405/190/36 465/187/36 
s 256
f 362/140/479 421/75/554 450/142/588 407/191/530 
s 1024
f 427/81/284 240/82/284 424/78/284 
s 256
f 408/192/531 407/191/530 450/142/588 439/113/569 
f 439/113/569 450/142/588 449/141/587 448/139/585 
s off
f 449/141/633 381/159/633 448/139/633 
s 16
f 409/193/533 460/164/605 387/165/500 
f 409/193/533 388/166/501 460/164/605 
f 331/109/438 355/131/468 436/110/566 
s off
f 451/143/634 455/147/634 449/141/634 
f 458/158/635 374/152/635 459/161/635 
f 371/149/636 454/146/636 453/145/636 
s 256
f 410/194/537 438/112/568 447/135/582 
f 410/194/537 408/192/531 439/113/569 438/112/568 
s off
f 306/197/637 305/196/637 425/195/637 426/198/637 
f 307/201/638 306/200/638 426/199/638 427/202/638 
f 305/196/639 309/204/639 428/203/639 425/195/639 
f 303/207/640 304/206/640 424/205/640 423/208/640 
f 309/204/641 308/210/641 429/209/641 428/203/641 
f 304/206/642 307/201/642 427/202/642 424/205/642 
f 308/210/643 303/207/643 423/208/643 429/209/643 
f 447/212/644 358/211/644 410/213/644 
f 345/215/645 344/214/645 442/216/645 
f 344/214/646 350/218/646 445/217/646 442/216/646 
f 350/218/647 358/211/647 447/212/647 445/217/647 
# 225 polygons - 480 triangles

